<svg width="100" height="100" viewBox="0 0 100 100" fill="none" xmlns="http://www.w3.org/2000/svg">
<g clip-path="url(#clip0_11_38)">
<rect width="100" height="100" rx="10" fill="url(#paint0_radial_11_38)"/>
<rect x="1.5" y="1.5" width="97" height="97" rx="8.5" stroke="black" stroke-opacity="0.25" stroke-width="3"/>
<rect x="20.5" y="15.5" width="58" height="68.3333" fill="#F4F4F4" stroke="black"/>
<path d="M30.3746 30L28.5266 26.736H27.7346V30H26.0546V21.624H29.1986C29.8466 21.624 30.3986 21.74 30.8546 21.972C31.3106 22.196 31.6506 22.504 31.8746 22.896C32.1066 23.28 32.2226 23.712 32.2226 24.192C32.2226 24.744 32.0626 25.244 31.7426 25.692C31.4226 26.132 30.9466 26.436 30.3146 26.604L32.3186 30H30.3746ZM27.7346 25.476H29.1386C29.5946 25.476 29.9346 25.368 30.1586 25.152C30.3826 24.928 30.4946 24.62 30.4946 24.228C30.4946 23.844 30.3826 23.548 30.1586 23.34C29.9346 23.124 29.5946 23.016 29.1386 23.016H27.7346V25.476ZM39.9221 26.532C39.9221 26.772 39.9061 26.988 39.8741 27.18H35.0141C35.0541 27.66 35.2221 28.036 35.5181 28.308C35.8141 28.58 36.1781 28.716 36.6101 28.716C37.2341 28.716 37.6781 28.448 37.9421 27.912H39.7541C39.5621 28.552 39.1941 29.08 38.6501 29.496C38.1061 29.904 37.4381 30.108 36.6461 30.108C36.0061 30.108 35.4301 29.968 34.9181 29.688C34.4141 29.4 34.0181 28.996 33.7301 28.476C33.4501 27.956 33.3101 27.356 33.3101 26.676C33.3101 25.988 33.4501 25.384 33.7301 24.864C34.0101 24.344 34.4021 23.944 34.9061 23.664C35.4101 23.384 35.9901 23.244 36.6461 23.244C37.2781 23.244 37.8421 23.38 38.3381 23.652C38.8421 23.924 39.2301 24.312 39.5021 24.816C39.7821 25.312 39.9221 25.884 39.9221 26.532ZM38.1821 26.052C38.1741 25.62 38.0181 25.276 37.7141 25.02C37.4101 24.756 37.0381 24.624 36.5981 24.624C36.1821 24.624 35.8301 24.752 35.5421 25.008C35.2621 25.256 35.0901 25.604 35.0261 26.052H38.1821ZM43.6923 30.108C43.1483 30.108 42.6603 30.012 42.2283 29.82C41.7963 29.62 41.4523 29.352 41.1963 29.016C40.9483 28.68 40.8123 28.308 40.7883 27.9H42.4803C42.5123 28.156 42.6363 28.368 42.8523 28.536C43.0763 28.704 43.3523 28.788 43.6803 28.788C44.0003 28.788 44.2483 28.724 44.4243 28.596C44.6083 28.468 44.7003 28.304 44.7003 28.104C44.7003 27.888 44.5883 27.728 44.3643 27.624C44.1483 27.512 43.8003 27.392 43.3203 27.264C42.8243 27.144 42.4163 27.02 42.0963 26.892C41.7843 26.764 41.5123 26.568 41.2803 26.304C41.0563 26.04 40.9443 25.684 40.9443 25.236C40.9443 24.868 41.0483 24.532 41.2563 24.228C41.4723 23.924 41.7763 23.684 42.1683 23.508C42.5683 23.332 43.0363 23.244 43.5723 23.244C44.3643 23.244 44.9963 23.444 45.4683 23.844C45.9403 24.236 46.2003 24.768 46.2483 25.44H44.6403C44.6163 25.176 44.5043 24.968 44.3043 24.816C44.1123 24.656 43.8523 24.576 43.5243 24.576C43.2203 24.576 42.9843 24.632 42.8163 24.744C42.6563 24.856 42.5763 25.012 42.5763 25.212C42.5763 25.436 42.6883 25.608 42.9123 25.728C43.1363 25.84 43.4843 25.956 43.9563 26.076C44.4363 26.196 44.8323 26.32 45.1443 26.448C45.4563 26.576 45.7243 26.776 45.9483 27.048C46.1803 27.312 46.3003 27.664 46.3083 28.104C46.3083 28.488 46.2003 28.832 45.9843 29.136C45.7763 29.44 45.4723 29.68 45.0723 29.856C44.6803 30.024 44.2203 30.108 43.6923 30.108ZM53.9634 23.352V30H52.2714V29.16C52.0554 29.448 51.7714 29.676 51.4194 29.844C51.0754 30.004 50.6994 30.084 50.2914 30.084C49.7714 30.084 49.3114 29.976 48.9114 29.76C48.5114 29.536 48.1954 29.212 47.9634 28.788C47.7394 28.356 47.6274 27.844 47.6274 27.252V23.352H49.3074V27.012C49.3074 27.54 49.4394 27.948 49.7034 28.236C49.9674 28.516 50.3274 28.656 50.7834 28.656C51.2474 28.656 51.6114 28.516 51.8754 28.236C52.1394 27.948 52.2714 27.54 52.2714 27.012V23.352H53.9634ZM63.877 23.256C64.693 23.256 65.349 23.508 65.845 24.012C66.349 24.508 66.601 25.204 66.601 26.1V30H64.921V26.328C64.921 25.808 64.789 25.412 64.525 25.14C64.261 24.86 63.901 24.72 63.445 24.72C62.989 24.72 62.625 24.86 62.353 25.14C62.089 25.412 61.957 25.808 61.957 26.328V30H60.277V26.328C60.277 25.808 60.145 25.412 59.881 25.14C59.617 24.86 59.257 24.72 58.801 24.72C58.337 24.72 57.969 24.86 57.697 25.14C57.433 25.412 57.301 25.808 57.301 26.328V30H55.621V23.352H57.301V24.156C57.517 23.876 57.793 23.656 58.129 23.496C58.473 23.336 58.849 23.256 59.257 23.256C59.777 23.256 60.241 23.368 60.649 23.592C61.057 23.808 61.373 24.12 61.597 24.528C61.813 24.144 62.125 23.836 62.533 23.604C62.949 23.372 63.397 23.256 63.877 23.256ZM74.3752 26.532C74.3752 26.772 74.3592 26.988 74.3272 27.18H69.4672C69.5072 27.66 69.6752 28.036 69.9712 28.308C70.2672 28.58 70.6312 28.716 71.0632 28.716C71.6872 28.716 72.1312 28.448 72.3952 27.912H74.2072C74.0152 28.552 73.6472 29.08 73.1032 29.496C72.5592 29.904 71.8912 30.108 71.0992 30.108C70.4592 30.108 69.8832 29.968 69.3712 29.688C68.8672 29.4 68.4712 28.996 68.1832 28.476C67.9032 27.956 67.7632 27.356 67.7632 26.676C67.7632 25.988 67.9032 25.384 68.1832 24.864C68.4632 24.344 68.8552 23.944 69.3592 23.664C69.8632 23.384 70.4432 23.244 71.0992 23.244C71.7312 23.244 72.2952 23.38 72.7912 23.652C73.2952 23.924 73.6832 24.312 73.9552 24.816C74.2352 25.312 74.3752 25.884 74.3752 26.532ZM72.6352 26.052C72.6272 25.62 72.4712 25.276 72.1672 25.02C71.8632 24.756 71.4912 24.624 71.0512 24.624C70.6352 24.624 70.2832 24.752 69.9952 25.008C69.7152 25.256 69.5432 25.604 69.4792 26.052H72.6352Z" fill="black"/>
<rect x="25" y="35" width="50" height="2" fill="#0F0F0F"/>
<rect x="25" y="41" width="50" height="2" fill="#0F0F0F"/>
<rect x="25" y="46.9998" width="50" height="2" fill="#0F0F0F"/>
<rect x="25" y="52.9998" width="50" height="2" fill="#0F0F0F"/>
<rect x="25" y="58.9998" width="50" height="2" fill="#0F0F0F"/>
<rect x="25" y="64.9998" width="50" height="2" fill="#0F0F0F"/>
<rect x="25" y="70.9998" width="50" height="2" fill="#0F0F0F"/>
<rect x="25" y="77" width="50" height="2" fill="#0F0F0F"/>
<rect x="72.5" y="15.5" width="6" height="6" fill="white" stroke="black"/>
<rect x="72.9107" y="14.9046" width="8.74841" height="0.860515" transform="rotate(45 72.9107 14.9046)" fill="black"/>
<rect x="78.2422" y="21.1797" width="0.757812" height="0.816406" fill="black"/>
<rect x="72.0117" y="15.001" width="0.988281" height="0.816406" fill="black"/>
<rect x="72.6702" y="14.6678" width="4.94555" height="9.9083" transform="rotate(-45 72.6702 14.6678)" fill="#E58600"/>
<rect x="78.9976" y="20.9019" width="0.262802" height="0.439079" fill="#E58600"/>
<rect x="72.7752" y="14.5602" width="0.262802" height="0.439079" fill="#E58600"/>
</g>
<defs>
<radialGradient id="paint0_radial_11_38" cx="0" cy="0" r="1" gradientUnits="userSpaceOnUse" gradientTransform="translate(50 50) rotate(90) scale(50)">
<stop stop-color="#FF9500"/>
<stop offset="1" stop-color="#E58600"/>
</radialGradient>
<clipPath id="clip0_11_38">
<rect width="100" height="100" fill="white"/>
</clipPath>
</defs>
</svg>
