<svg width="100" height="100" viewBox="0 0 100 100" fill="none" xmlns="http://www.w3.org/2000/svg">
<g clip-path="url(#clip0_13_81)">
<circle cx="50" cy="50" r="50" fill="url(#paint0_radial_13_81)"/>
<circle cx="50" cy="50" r="49" stroke="black" stroke-opacity="0.25" stroke-width="2"/>
<mask id="path-3-outside-1_13_81" maskUnits="userSpaceOnUse" x="10" y="32" width="77" height="37" fill="black">
<rect fill="white" x="10" y="32" width="77" height="37"/>
<path d="M11.0494 50.248C11.0494 46.984 11.8014 44.056 13.3054 41.464C14.8414 38.872 16.9054 36.856 19.4974 35.416C22.1214 33.944 24.9854 33.208 28.0894 33.208C31.6414 33.208 34.7934 34.088 37.5454 35.848C40.3294 37.576 42.3454 40.04 43.5934 43.24H37.0174C36.1534 41.48 34.9534 40.168 33.4174 39.304C31.8814 38.44 30.1054 38.008 28.0894 38.008C25.8814 38.008 23.9134 38.504 22.1854 39.496C20.4574 40.488 19.0974 41.912 18.1054 43.768C17.1454 45.624 16.6654 47.784 16.6654 50.248C16.6654 52.712 17.1454 54.872 18.1054 56.728C19.0974 58.584 20.4574 60.024 22.1854 61.048C23.9134 62.04 25.8814 62.536 28.0894 62.536C30.1054 62.536 31.8814 62.104 33.4174 61.24C34.9534 60.376 36.1534 59.064 37.0174 57.304H43.5934C42.3454 60.504 40.3294 62.968 37.5454 64.696C34.7934 66.424 31.6414 67.288 28.0894 67.288C24.9534 67.288 22.0894 66.568 19.4974 65.128C16.9054 63.656 14.8414 61.624 13.3054 59.032C11.8014 56.44 11.0494 53.512 11.0494 50.248ZM85.1344 33.64V67H79.6624V44.152L69.4864 67H65.6944L55.4704 44.152V67H49.9984V33.64H55.9024L67.6144 59.8L79.2784 33.64H85.1344Z"/>
</mask>
<path d="M11.0494 50.248C11.0494 46.984 11.8014 44.056 13.3054 41.464C14.8414 38.872 16.9054 36.856 19.4974 35.416C22.1214 33.944 24.9854 33.208 28.0894 33.208C31.6414 33.208 34.7934 34.088 37.5454 35.848C40.3294 37.576 42.3454 40.04 43.5934 43.24H37.0174C36.1534 41.48 34.9534 40.168 33.4174 39.304C31.8814 38.44 30.1054 38.008 28.0894 38.008C25.8814 38.008 23.9134 38.504 22.1854 39.496C20.4574 40.488 19.0974 41.912 18.1054 43.768C17.1454 45.624 16.6654 47.784 16.6654 50.248C16.6654 52.712 17.1454 54.872 18.1054 56.728C19.0974 58.584 20.4574 60.024 22.1854 61.048C23.9134 62.04 25.8814 62.536 28.0894 62.536C30.1054 62.536 31.8814 62.104 33.4174 61.24C34.9534 60.376 36.1534 59.064 37.0174 57.304H43.5934C42.3454 60.504 40.3294 62.968 37.5454 64.696C34.7934 66.424 31.6414 67.288 28.0894 67.288C24.9534 67.288 22.0894 66.568 19.4974 65.128C16.9054 63.656 14.8414 61.624 13.3054 59.032C11.8014 56.44 11.0494 53.512 11.0494 50.248ZM85.1344 33.64V67H79.6624V44.152L69.4864 67H65.6944L55.4704 44.152V67H49.9984V33.64H55.9024L67.6144 59.8L79.2784 33.64H85.1344Z" fill="#9616B6"/>
<path d="M13.3054 41.464L12.4451 40.9542L12.4405 40.9621L13.3054 41.464ZM19.4974 35.416L19.9831 36.2902L19.9867 36.2881L19.4974 35.416ZM37.5454 35.848L37.0066 36.6905L37.0181 36.6976L37.5454 35.848ZM43.5934 43.24V44.24H45.0568L44.5251 42.8767L43.5934 43.24ZM37.0174 43.24L36.1198 43.6807L36.3943 44.24H37.0174V43.24ZM33.4174 39.304L33.9077 38.4324L33.9077 38.4324L33.4174 39.304ZM22.1854 39.496L22.6833 40.3633L22.6833 40.3633L22.1854 39.496ZM18.1054 43.768L17.2234 43.2966L17.2172 43.3086L18.1054 43.768ZM18.1054 56.728L17.2171 57.1875L17.2235 57.1994L18.1054 56.728ZM22.1854 61.048L21.6756 61.9084L21.6876 61.9153L22.1854 61.048ZM33.4174 61.24L33.9077 62.1116L33.9077 62.1116L33.4174 61.24ZM37.0174 57.304V56.304H36.3943L36.1198 56.8633L37.0174 57.304ZM43.5934 57.304L44.5251 57.6673L45.0568 56.304H43.5934V57.304ZM37.5454 64.696L37.0181 63.8463L37.0137 63.8491L37.5454 64.696ZM19.4974 65.128L19.0036 65.9976L19.0118 66.0022L19.4974 65.128ZM13.3054 59.032L12.4405 59.5339L12.4451 59.5418L13.3054 59.032ZM12.0494 50.248C12.0494 47.1441 12.7626 44.392 14.1704 41.9659L12.4405 40.9621C10.8402 43.72 10.0494 46.8239 10.0494 50.248H12.0494ZM14.1657 41.9738C15.6129 39.5317 17.5487 37.6426 19.9831 36.2902L19.0118 34.5418C16.2622 36.0694 14.07 38.2123 12.4451 40.9542L14.1657 41.9738ZM19.9867 36.2881C22.4564 34.9027 25.1511 34.208 28.0894 34.208V32.208C24.8198 32.208 21.7865 32.9853 19.0082 34.5439L19.9867 36.2881ZM28.0894 34.208C31.4678 34.208 34.4295 35.0423 37.0067 36.6904L38.0842 35.0055C35.1573 33.1337 31.815 32.208 28.0894 32.208V34.208ZM37.0181 36.6976C39.609 38.3058 41.4883 40.5945 42.6618 43.6033L44.5251 42.8767C43.2025 39.4855 41.0499 36.8462 38.0728 34.9984L37.0181 36.6976ZM43.5934 42.24H37.0174V44.24H43.5934V42.24ZM37.9151 42.7993C36.9724 40.8791 35.6395 39.4066 33.9077 38.4324L32.9272 40.1756C34.2673 40.9294 35.3344 42.0809 36.1198 43.6807L37.9151 42.7993ZM33.9077 38.4324C32.2016 37.4727 30.2521 37.008 28.0894 37.008V39.008C29.9588 39.008 31.5613 39.4073 32.9272 40.1756L33.9077 38.4324ZM28.0894 37.008C25.7261 37.008 23.583 37.5406 21.6876 38.6287L22.6833 40.3633C24.2438 39.4674 26.0368 39.008 28.0894 39.008V37.008ZM21.6876 38.6287C19.7877 39.7194 18.2987 41.285 17.2235 43.2966L18.9874 44.2394C19.8962 42.539 21.1272 41.2566 22.6833 40.3633L21.6876 38.6287ZM17.2172 43.3086C16.1717 45.33 15.6654 47.6527 15.6654 50.248H17.6654C17.6654 47.9153 18.1192 45.918 18.9937 44.2274L17.2172 43.3086ZM15.6654 50.248C15.6654 52.8433 16.1717 55.166 17.2172 57.1874L18.9937 56.2686C18.1192 54.578 17.6654 52.5807 17.6654 50.248H15.6654ZM17.2235 57.1994C18.2974 59.2085 19.7827 60.7866 21.6756 61.9083L22.6952 60.1877C21.1322 59.2614 19.8975 57.9595 18.9874 56.2566L17.2235 57.1994ZM21.6876 61.9153C23.583 63.0034 25.7261 63.536 28.0894 63.536V61.536C26.0368 61.536 24.2438 61.0766 22.6833 60.1807L21.6876 61.9153ZM28.0894 63.536C30.2521 63.536 32.2016 63.0713 33.9077 62.1116L32.9272 60.3684C31.5613 61.1367 29.9588 61.536 28.0894 61.536V63.536ZM33.9077 62.1116C35.6395 61.1374 36.9724 59.6649 37.9151 57.7447L36.1198 56.8633C35.3344 58.4631 34.2673 59.6146 32.9272 60.3684L33.9077 62.1116ZM37.0174 58.304H43.5934V56.304H37.0174V58.304ZM42.6618 56.9407C41.4883 59.9495 39.609 62.2382 37.0181 63.8464L38.0728 65.5456C41.0499 63.6978 43.2025 61.0585 44.5251 57.6673L42.6618 56.9407ZM37.0137 63.8491C34.4357 65.4678 31.4715 66.288 28.0894 66.288V68.288C31.8114 68.288 35.1512 67.3802 38.0772 65.5429L37.0137 63.8491ZM28.0894 66.288C25.1132 66.288 22.4179 65.6065 19.9831 64.2538L19.0118 66.0022C21.761 67.5295 24.7936 68.288 28.0894 68.288V66.288ZM19.9913 64.2584C17.5524 62.8734 15.614 60.9661 14.1657 58.5222L12.4451 59.5418C14.0689 62.2819 16.2585 64.4386 19.0036 65.9976L19.9913 64.2584ZM14.1704 58.5301C12.7626 56.104 12.0494 53.3519 12.0494 50.248H10.0494C10.0494 53.6721 10.8402 56.776 12.4405 59.5339L14.1704 58.5301ZM85.1344 33.64H86.1344V32.64H85.1344V33.64ZM85.1344 67V68H86.1344V67H85.1344ZM79.6624 67H78.6624V68H79.6624V67ZM79.6624 44.152H80.6624L78.7489 43.7451L79.6624 44.152ZM69.4864 67V68H70.1358L70.3999 67.4069L69.4864 67ZM65.6944 67L64.7817 67.4085L65.0464 68H65.6944V67ZM55.4704 44.152L56.3832 43.7435L54.4704 44.152H55.4704ZM55.4704 67V68H56.4704V67H55.4704ZM49.9984 67H48.9984V68H49.9984V67ZM49.9984 33.64V32.64H48.9984V33.64H49.9984ZM55.9024 33.64L56.8151 33.2314L56.5504 32.64H55.9024V33.64ZM67.6144 59.8L66.7017 60.2086L67.6163 62.2514L68.5278 60.2072L67.6144 59.8ZM79.2784 33.64V32.64H78.6294L78.3651 33.2328L79.2784 33.64ZM84.1344 33.64V67H86.1344V33.64H84.1344ZM85.1344 66H79.6624V68H85.1344V66ZM80.6624 67V44.152H78.6624V67H80.6624ZM78.7489 43.7451L68.5729 66.5931L70.3999 67.4069L80.5759 44.5589L78.7489 43.7451ZM69.4864 66H65.6944V68H69.4864V66ZM66.6072 66.5915L56.3832 43.7435L54.5577 44.5604L64.7817 67.4085L66.6072 66.5915ZM54.4704 44.152V67H56.4704V44.152H54.4704ZM55.4704 66H49.9984V68H55.4704V66ZM50.9984 67V33.64H48.9984V67H50.9984ZM49.9984 34.64H55.9024V32.64H49.9984V34.64ZM54.9897 34.0486L66.7017 60.2086L68.5271 59.3914L56.8151 33.2314L54.9897 34.0486ZM68.5278 60.2072L80.1918 34.0472L78.3651 33.2328L66.7011 59.3928L68.5278 60.2072ZM79.2784 34.64H85.1344V32.64H79.2784V34.64Z" fill="black" fill-opacity="0.25" mask="url(#path-3-outside-1_13_81)"/>
</g>
<defs>
<radialGradient id="paint0_radial_13_81" cx="0" cy="0" r="1" gradientUnits="userSpaceOnUse" gradientTransform="translate(50 50) rotate(90) scale(50)">
<stop stop-color="#1E1E1E"/>
<stop offset="1" stop-color="#222222"/>
</radialGradient>
<clipPath id="clip0_13_81">
<rect width="100" height="100" fill="white"/>
</clipPath>
</defs>
</svg>
