<svg id="visual" viewBox="0 0 960 540" width="960" height="540" xmlns="http://www.w3.org/2000/svg" xmlns:xlink="http://www.w3.org/1999/xlink" version="1.1"><g stroke-width="1" stroke-linejoin="bevel"><path d="M498.3 297L437.7 354L531.3 323Z" fill="#e4e4e4" stroke="#e4e4e4"></path><path d="M498.3 297L391.7 298L437.7 354Z" fill="#e4e4e4" stroke="#e4e4e4"></path><path d="M549.3 458L614 362L531.3 323Z" fill="#f3f3f3" stroke="#f3f3f3"></path><path d="M531.3 323L505.3 217L498.3 297Z" fill="#f3f3f3" stroke="#f3f3f3"></path><path d="M437.7 354L549.3 458L531.3 323Z" fill="#e4e4e4" stroke="#e4e4e4"></path><path d="M621 305L505.3 217L531.3 323Z" fill="#dcdcdc" stroke="#dcdcdc"></path><path d="M498.3 297L445.7 216L391.7 298Z" fill="#e7e7e7" stroke="#e7e7e7"></path><path d="M324 335L407.7 450L437.7 354Z" fill="#dfdfdf" stroke="#dfdfdf"></path><path d="M437.7 354L407.7 450L549.3 458Z" fill="#dcdcdc" stroke="#dcdcdc"></path><path d="M505.3 217L445.7 216L498.3 297Z" fill="#dfdfdf" stroke="#dfdfdf"></path><path d="M614 362L621 305L531.3 323Z" fill="#f6f6f6" stroke="#f6f6f6"></path><path d="M354 249L324 335L391.7 298Z" fill="#f0f0f0" stroke="#f0f0f0"></path><path d="M391.7 298L324 335L437.7 354Z" fill="#f0f0f0" stroke="#f0f0f0"></path><path d="M445.7 216L354 249L391.7 298Z" fill="#e2e2e2" stroke="#e2e2e2"></path><path d="M398.7 540L561.3 540L549.3 458Z" fill="#f6f6f6" stroke="#f6f6f6"></path><path d="M549.3 458L665 469L614 362Z" fill="#f6f6f6" stroke="#f6f6f6"></path><path d="M301 540L398.7 540L407.7 450Z" fill="#e2e2e2" stroke="#e2e2e2"></path><path d="M407.7 450L398.7 540L549.3 458Z" fill="#dfdfdf" stroke="#dfdfdf"></path><path d="M601 540L665 469L549.3 458Z" fill="#f9f9f9" stroke="#f9f9f9"></path><path d="M614 362L736.7 355L621 305Z" fill="#e7e7e7" stroke="#e7e7e7"></path><path d="M561.3 540L601 540L549.3 458Z" fill="#ededed" stroke="#ededed"></path><path d="M733.7 268L635 173L621 305Z" fill="#f3f3f3" stroke="#f3f3f3"></path><path d="M621 305L635 173L505.3 217Z" fill="#f6f6f6" stroke="#f6f6f6"></path><path d="M393.7 70L341 109L445.7 216Z" fill="#e2e2e2" stroke="#e2e2e2"></path><path d="M324 335L281 469L407.7 450Z" fill="#e4e4e4" stroke="#e4e4e4"></path><path d="M771.7 540L707.7 452L665 469Z" fill="#f0f0f0" stroke="#f0f0f0"></path><path d="M665 469L707.7 452L614 362Z" fill="#f3f3f3" stroke="#f3f3f3"></path><path d="M707.7 452L736.7 355L614 362Z" fill="#f0f0f0" stroke="#f0f0f0"></path><path d="M736.7 355L733.7 268L621 305Z" fill="#e2e2e2" stroke="#e2e2e2"></path><path d="M281 469L301 540L407.7 450Z" fill="#e2e2e2" stroke="#e2e2e2"></path><path d="M341 109L354 249L445.7 216Z" fill="#f3f3f3" stroke="#f3f3f3"></path><path d="M341 109L296 154L354 249Z" fill="#f9f9f9" stroke="#f9f9f9"></path><path d="M354 249L192.3 282L324 335Z" fill="#eaeaea" stroke="#eaeaea"></path><path d="M324 335L202.3 429L281 469Z" fill="#e4e4e4" stroke="#e4e4e4"></path><path d="M715.7 152L632 116L635 173Z" fill="#f0f0f0" stroke="#f0f0f0"></path><path d="M635 173L632 116L505.3 217Z" fill="#f9f9f9" stroke="#f9f9f9"></path><path d="M511.3 61L445.7 216L505.3 217Z" fill="#ededed" stroke="#ededed"></path><path d="M632 116L511.3 61L505.3 217Z" fill="#dcdcdc" stroke="#dcdcdc"></path><path d="M511.3 61L393.7 70L445.7 216Z" fill="#eaeaea" stroke="#eaeaea"></path><path d="M173.3 368L202.3 429L324 335Z" fill="#e4e4e4" stroke="#e4e4e4"></path><path d="M281 469L202.3 540L301 540Z" fill="#ededed" stroke="#ededed"></path><path d="M733.7 268L715.7 152L635 173Z" fill="#f3f3f3" stroke="#f3f3f3"></path><path d="M561.3 0L464.7 0L511.3 61Z" fill="#dfdfdf" stroke="#dfdfdf"></path><path d="M296 154L192.3 282L354 249Z" fill="#ededed" stroke="#ededed"></path><path d="M341 109L249.3 147L296 154Z" fill="#e7e7e7" stroke="#e7e7e7"></path><path d="M296 154L249.3 147L192.3 282Z" fill="#eaeaea" stroke="#eaeaea"></path><path d="M176.3 124L249.3 147L181.3 0Z" fill="#e4e4e4" stroke="#e4e4e4"></path><path d="M192.3 282L173.3 368L324 335Z" fill="#e4e4e4" stroke="#e4e4e4"></path><path d="M845.3 335L816.3 258L736.7 355Z" fill="#f3f3f3" stroke="#f3f3f3"></path><path d="M736.7 355L816.3 258L733.7 268Z" fill="#eaeaea" stroke="#eaeaea"></path><path d="M733.7 268L818.3 156L715.7 152Z" fill="#e2e2e2" stroke="#e2e2e2"></path><path d="M115.7 540L202.3 540L202.3 429Z" fill="#f9f9f9" stroke="#f9f9f9"></path><path d="M202.3 429L202.3 540L281 469Z" fill="#dcdcdc" stroke="#dcdcdc"></path><path d="M601 540L771.7 540L665 469Z" fill="#ededed" stroke="#ededed"></path><path d="M881.3 418L845.3 335L736.7 355Z" fill="#f0f0f0" stroke="#f0f0f0"></path><path d="M561.3 0L511.3 61L632 116Z" fill="#dcdcdc" stroke="#dcdcdc"></path><path d="M511.3 61L464.7 0L393.7 70Z" fill="#e7e7e7" stroke="#e7e7e7"></path><path d="M293 0L249.3 147L341 109Z" fill="#ededed" stroke="#ededed"></path><path d="M642 0L561.3 0L632 116Z" fill="#f9f9f9" stroke="#f9f9f9"></path><path d="M881.3 418L736.7 355L707.7 452Z" fill="#dfdfdf" stroke="#dfdfdf"></path><path d="M818.3 156L778.7 129L715.7 152Z" fill="#e7e7e7" stroke="#e7e7e7"></path><path d="M730.7 0L642 0L632 116Z" fill="#e4e4e4" stroke="#e4e4e4"></path><path d="M818.3 156L733.7 268L816.3 258Z" fill="#e7e7e7" stroke="#e7e7e7"></path><path d="M730.7 0L632 116L715.7 152Z" fill="#eaeaea" stroke="#eaeaea"></path><path d="M249.3 147L176.3 124L192.3 282Z" fill="#f0f0f0" stroke="#f0f0f0"></path><path d="M192.3 282L76.7 364L173.3 368Z" fill="#eaeaea" stroke="#eaeaea"></path><path d="M293 0L341 109L393.7 70Z" fill="#f0f0f0" stroke="#f0f0f0"></path><path d="M845.3 91L818.3 156L960 171Z" fill="#e7e7e7" stroke="#e7e7e7"></path><path d="M778.7 129L730.7 0L715.7 152Z" fill="#dcdcdc" stroke="#dcdcdc"></path><path d="M113.7 175L114.7 237L192.3 282Z" fill="#dfdfdf" stroke="#dfdfdf"></path><path d="M173.3 368L104.7 438L202.3 429Z" fill="#f0f0f0" stroke="#f0f0f0"></path><path d="M771.7 540L881.3 418L707.7 452Z" fill="#e2e2e2" stroke="#e2e2e2"></path><path d="M76.7 364L104.7 438L173.3 368Z" fill="#dfdfdf" stroke="#dfdfdf"></path><path d="M464.7 0L293 0L393.7 70Z" fill="#eaeaea" stroke="#eaeaea"></path><path d="M828.3 540L881.3 418L771.7 540Z" fill="#e2e2e2" stroke="#e2e2e2"></path><path d="M960 171L818.3 156L816.3 258Z" fill="#e4e4e4" stroke="#e4e4e4"></path><path d="M176.3 124L113.7 175L192.3 282Z" fill="#eaeaea" stroke="#eaeaea"></path><path d="M114.7 237L76.7 364L192.3 282Z" fill="#dfdfdf" stroke="#dfdfdf"></path><path d="M85.7 108L113.7 175L176.3 124Z" fill="#ededed" stroke="#ededed"></path><path d="M0 345L76.7 364L0 233Z" fill="#f0f0f0" stroke="#f0f0f0"></path><path d="M0 488L115.7 540L104.7 438Z" fill="#e7e7e7" stroke="#e7e7e7"></path><path d="M104.7 438L115.7 540L202.3 429Z" fill="#e4e4e4" stroke="#e4e4e4"></path><path d="M845.3 91L730.7 0L778.7 129Z" fill="#f3f3f3" stroke="#f3f3f3"></path><path d="M960 269L816.3 258L845.3 335Z" fill="#ededed" stroke="#ededed"></path><path d="M818.3 156L845.3 91L778.7 129Z" fill="#f0f0f0" stroke="#f0f0f0"></path><path d="M293 0L181.3 0L249.3 147Z" fill="#f9f9f9" stroke="#f9f9f9"></path><path d="M181.3 0L85.7 108L176.3 124Z" fill="#eaeaea" stroke="#eaeaea"></path><path d="M0 233L76.7 364L114.7 237Z" fill="#e4e4e4" stroke="#e4e4e4"></path><path d="M960 425L960 362L881.3 418Z" fill="#e2e2e2" stroke="#e2e2e2"></path><path d="M881.3 418L960 362L845.3 335Z" fill="#e4e4e4" stroke="#e4e4e4"></path><path d="M960 362L960 269L845.3 335Z" fill="#eaeaea" stroke="#eaeaea"></path><path d="M960 540L960 425L881.3 418Z" fill="#e4e4e4" stroke="#e4e4e4"></path><path d="M0 233L114.7 237L113.7 175Z" fill="#f9f9f9" stroke="#f9f9f9"></path><path d="M76.7 364L0 488L104.7 438Z" fill="#f3f3f3" stroke="#f3f3f3"></path><path d="M960 58L839.3 0L845.3 91Z" fill="#e4e4e4" stroke="#e4e4e4"></path><path d="M845.3 91L839.3 0L730.7 0Z" fill="#f9f9f9" stroke="#f9f9f9"></path><path d="M0 145L0 233L113.7 175Z" fill="#f6f6f6" stroke="#f6f6f6"></path><path d="M960 269L960 171L816.3 258Z" fill="#e2e2e2" stroke="#e2e2e2"></path><path d="M0 345L0 488L76.7 364Z" fill="#eaeaea" stroke="#eaeaea"></path><path d="M828.3 540L960 540L881.3 418Z" fill="#f9f9f9" stroke="#f9f9f9"></path><path d="M0 488L0 540L115.7 540Z" fill="#f0f0f0" stroke="#f0f0f0"></path><path d="M181.3 0L90.7 0L85.7 108Z" fill="#e2e2e2" stroke="#e2e2e2"></path><path d="M85.7 108L0 145L113.7 175Z" fill="#e4e4e4" stroke="#e4e4e4"></path><path d="M0 99L0 145L85.7 108Z" fill="#dfdfdf" stroke="#dfdfdf"></path><path d="M90.7 0L0 99L85.7 108Z" fill="#f3f3f3" stroke="#f3f3f3"></path><path d="M960 171L960 58L845.3 91Z" fill="#dfdfdf" stroke="#dfdfdf"></path><path d="M960 58L960 0L839.3 0Z" fill="#f6f6f6" stroke="#f6f6f6"></path><path d="M90.7 0L0 0L0 99Z" fill="#dfdfdf" stroke="#dfdfdf"></path></g></svg>