<svg width="100" height="100" viewBox="0 0 100 100" fill="none" xmlns="http://www.w3.org/2000/svg">
<g clip-path="url(#clip0_9_16)">
<rect width="100" height="100" rx="10" fill="#111111"/>
<rect x="1.5" y="1.5" width="97" height="97" rx="8.5" stroke="black" stroke-opacity="0.25" stroke-width="3"/>
<path d="M6.5 66.5H33.5V93.5H16C10.7533 93.5 6.5 89.2467 6.5 84V66.5Z" fill="#181818" stroke="#0F0F0F"/>
<path d="M36.5 66.5H63.5V93.5H36.5V66.5Z" fill="#181818" stroke="#0F0F0F"/>
<path d="M36.5 36.5H63.5V63.5H36.5V36.5Z" fill="#181818" stroke="#0F0F0F"/>
<path d="M66.5 36.5H93.5V63.5H66.5V36.5Z" fill="#181818" stroke="#0F0F0F"/>
<path d="M66.5 6.5H84C89.2467 6.5 93.5 10.7533 93.5 16V33.5H66.5V6.5Z" fill="#181818" stroke="#0F0F0F"/>
<path d="M6.5 36.5H33.5V63.5H6.5V36.5Z" fill="#6A00FF" stroke="#0F0F0F"/>
<path d="M36.5 6.5H63.5V33.5H36.5V6.5Z" fill="#6A00FF" stroke="#0F0F0F"/>
<path d="M16 6.5H33.5V33.5H6.5V16C6.5 10.7533 10.7533 6.5 16 6.5Z" fill="#181818" stroke="#0F0F0F"/>
<path d="M66.5 66.5H93.5V84C93.5 89.2467 89.2467 93.5 84 93.5H66.5V66.5Z" fill="#6A00FF" stroke="#0F0F0F"/>
</g>
<defs>
<clipPath id="clip0_9_16">
<rect width="100" height="100" rx="10" fill="white"/>
</clipPath>
</defs>
</svg>
