<svg width="100" height="100" viewBox="0 0 100 100" fill="none" xmlns="http://www.w3.org/2000/svg">
<rect width="100" height="100" rx="10" fill="url(#paint0_radial_10_28)"/>
<rect x="1.5" y="1.5" width="97" height="97" rx="8.5" stroke="black" stroke-opacity="0.25" stroke-width="3"/>
<g filter="url(#filter0_d_10_28)">
<rect x="7.5" y="12.5" width="85" height="50" fill="#222222"/>
</g>
<rect x="43.5" y="17.5" width="49" height="45" fill="#222222"/>
<rect x="7.5" y="12.5" width="85" height="5" fill="#181818"/>
<rect x="7.5" y="17.5" width="36" height="45" fill="#0F0F0F"/>
<path d="M11.3966 78.3C11.3966 77.476 11.5806 76.74 11.9486 76.092C12.3246 75.436 12.8326 74.928 13.4726 74.568C14.1206 74.2 14.8446 74.016 15.6446 74.016C16.5806 74.016 17.4006 74.256 18.1046 74.736C18.8086 75.216 19.3006 75.88 19.5806 76.728H17.6486C17.4566 76.328 17.1846 76.028 16.8326 75.828C16.4886 75.628 16.0886 75.528 15.6326 75.528C15.1446 75.528 14.7086 75.644 14.3246 75.876C13.9486 76.1 13.6526 76.42 13.4366 76.836C13.2286 77.252 13.1246 77.74 13.1246 78.3C13.1246 78.852 13.2286 79.34 13.4366 79.764C13.6526 80.18 13.9486 80.504 14.3246 80.736C14.7086 80.96 15.1446 81.072 15.6326 81.072C16.0886 81.072 16.4886 80.972 16.8326 80.772C17.1846 80.564 17.4566 80.26 17.6486 79.86H19.5806C19.3006 80.716 18.8086 81.384 18.1046 81.864C17.4086 82.336 16.5886 82.572 15.6446 82.572C14.8446 82.572 14.1206 82.392 13.4726 82.032C12.8326 81.664 12.3246 81.156 11.9486 80.508C11.5806 79.86 11.3966 79.124 11.3966 78.3ZM24.7595 75.756C25.2635 75.756 25.7115 75.868 26.1035 76.092C26.4955 76.308 26.7995 76.632 27.0155 77.064C27.2395 77.488 27.3515 78 27.3515 78.6V82.5H25.6715V78.828C25.6715 78.3 25.5395 77.896 25.2755 77.616C25.0115 77.328 24.6515 77.184 24.1955 77.184C23.7315 77.184 23.3635 77.328 23.0915 77.616C22.8275 77.896 22.6955 78.3 22.6955 78.828V82.5H21.0155V73.62H22.6955V76.68C22.9115 76.392 23.1995 76.168 23.5595 76.008C23.9195 75.84 24.3195 75.756 24.7595 75.756ZM35.1291 79.032C35.1291 79.272 35.1131 79.488 35.0811 79.68H30.2211C30.2611 80.16 30.4291 80.536 30.7251 80.808C31.0211 81.08 31.3851 81.216 31.8171 81.216C32.4411 81.216 32.8851 80.948 33.1491 80.412H34.9611C34.7691 81.052 34.4011 81.58 33.8571 81.996C33.3131 82.404 32.6451 82.608 31.8531 82.608C31.2131 82.608 30.6371 82.468 30.1251 82.188C29.6211 81.9 29.2251 81.496 28.9371 80.976C28.6571 80.456 28.5171 79.856 28.5171 79.176C28.5171 78.488 28.6571 77.884 28.9371 77.364C29.2171 76.844 29.6091 76.444 30.1131 76.164C30.6171 75.884 31.1971 75.744 31.8531 75.744C32.4851 75.744 33.0491 75.88 33.5451 76.152C34.0491 76.424 34.4371 76.812 34.7091 77.316C34.9891 77.812 35.1291 78.384 35.1291 79.032ZM33.3891 78.552C33.3811 78.12 33.2251 77.776 32.9211 77.52C32.6171 77.256 32.2451 77.124 31.8051 77.124C31.3891 77.124 31.0371 77.252 30.7491 77.508C30.4691 77.756 30.2971 78.104 30.2331 78.552H33.3891ZM38.3113 77.232V80.448C38.3113 80.672 38.3633 80.836 38.4673 80.94C38.5793 81.036 38.7633 81.084 39.0193 81.084H39.7993V82.5H38.7433C37.3273 82.5 36.6193 81.812 36.6193 80.436V77.232H35.8273V75.852H36.6193V74.208H38.3113V75.852H39.7993V77.232H38.3113ZM52.9991 74.124V82.5H51.3191V77.052L49.0751 82.5H47.8031L45.5471 77.052V82.5H43.8671V74.124H45.7751L48.4391 80.352L51.1031 74.124H52.9991ZM54.228 79.152C54.228 78.48 54.36 77.884 54.624 77.364C54.896 76.844 55.26 76.444 55.716 76.164C56.18 75.884 56.696 75.744 57.264 75.744C57.76 75.744 58.192 75.844 58.56 76.044C58.936 76.244 59.236 76.496 59.46 76.8V75.852H61.152V82.5H59.46V81.528C59.244 81.84 58.944 82.1 58.56 82.308C58.184 82.508 57.748 82.608 57.252 82.608C56.692 82.608 56.18 82.464 55.716 82.176C55.26 81.888 54.896 81.484 54.624 80.964C54.36 80.436 54.228 79.832 54.228 79.152ZM59.46 79.176C59.46 78.768 59.38 78.42 59.22 78.132C59.06 77.836 58.844 77.612 58.572 77.46C58.3 77.3 58.008 77.22 57.696 77.22C57.384 77.22 57.096 77.296 56.832 77.448C56.568 77.6 56.352 77.824 56.184 78.12C56.024 78.408 55.944 78.752 55.944 79.152C55.944 79.552 56.024 79.904 56.184 80.208C56.352 80.504 56.568 80.732 56.832 80.892C57.104 81.052 57.392 81.132 57.696 81.132C58.008 81.132 58.3 81.056 58.572 80.904C58.844 80.744 59.06 80.52 59.22 80.232C59.38 79.936 59.46 79.584 59.46 79.176ZM66.4768 75.756C67.2688 75.756 67.9088 76.008 68.3968 76.512C68.8848 77.008 69.1288 77.704 69.1288 78.6V82.5H67.4488V78.828C67.4488 78.3 67.3168 77.896 67.0528 77.616C66.7888 77.328 66.4288 77.184 65.9728 77.184C65.5088 77.184 65.1408 77.328 64.8688 77.616C64.6048 77.896 64.4728 78.3 64.4728 78.828V82.5H62.7928V75.852H64.4728V76.68C64.6968 76.392 64.9808 76.168 65.3248 76.008C65.6768 75.84 66.0608 75.756 66.4768 75.756ZM70.2944 79.152C70.2944 78.48 70.4264 77.884 70.6904 77.364C70.9624 76.844 71.3264 76.444 71.7824 76.164C72.2464 75.884 72.7624 75.744 73.3304 75.744C73.8264 75.744 74.2584 75.844 74.6264 76.044C75.0024 76.244 75.3024 76.496 75.5264 76.8V75.852H77.2184V82.5H75.5264V81.528C75.3104 81.84 75.0104 82.1 74.6264 82.308C74.2504 82.508 73.8144 82.608 73.3184 82.608C72.7584 82.608 72.2464 82.464 71.7824 82.176C71.3264 81.888 70.9624 81.484 70.6904 80.964C70.4264 80.436 70.2944 79.832 70.2944 79.152ZM75.5264 79.176C75.5264 78.768 75.4464 78.42 75.2864 78.132C75.1264 77.836 74.9104 77.612 74.6384 77.46C74.3664 77.3 74.0744 77.22 73.7624 77.22C73.4504 77.22 73.1624 77.296 72.8984 77.448C72.6344 77.6 72.4184 77.824 72.2504 78.12C72.0904 78.408 72.0104 78.752 72.0104 79.152C72.0104 79.552 72.0904 79.904 72.2504 80.208C72.4184 80.504 72.6344 80.732 72.8984 80.892C73.1704 81.052 73.4584 81.132 73.7624 81.132C74.0744 81.132 74.3664 81.056 74.6384 80.904C74.9104 80.744 75.1264 80.52 75.2864 80.232C75.4464 79.936 75.5264 79.584 75.5264 79.176ZM80.5393 73.62V82.5H78.8593V73.62H80.5393ZM85.1511 82.608C84.5111 82.608 83.9351 82.468 83.4231 82.188C82.9111 81.9 82.5071 81.496 82.2111 80.976C81.9231 80.456 81.7791 79.856 81.7791 79.176C81.7791 78.496 81.9271 77.896 82.2231 77.376C82.5271 76.856 82.9391 76.456 83.4591 76.176C83.9791 75.888 84.5591 75.744 85.1991 75.744C85.8391 75.744 86.4191 75.888 86.9391 76.176C87.4591 76.456 87.8671 76.856 88.1631 77.376C88.4671 77.896 88.6191 78.496 88.6191 79.176C88.6191 79.856 88.4631 80.456 88.1511 80.976C87.8471 81.496 87.4311 81.9 86.9031 82.188C86.3831 82.468 85.7991 82.608 85.1511 82.608ZM85.1511 81.144C85.4551 81.144 85.7391 81.072 86.0031 80.928C86.2751 80.776 86.4911 80.552 86.6511 80.256C86.8111 79.96 86.8911 79.6 86.8911 79.176C86.8911 78.544 86.7231 78.06 86.3871 77.724C86.0591 77.38 85.6551 77.208 85.1751 77.208C84.6951 77.208 84.2911 77.38 83.9631 77.724C83.6431 78.06 83.4831 78.544 83.4831 79.176C83.4831 79.808 83.6391 80.296 83.9511 80.64C84.2711 80.976 84.6711 81.144 85.1511 81.144Z" fill="#F4F4F4"/>
<defs>
<filter id="filter0_d_10_28" x="3.5" y="12.5" width="93" height="58" filterUnits="userSpaceOnUse" color-interpolation-filters="sRGB">
<feFlood flood-opacity="0" result="BackgroundImageFix"/>
<feColorMatrix in="SourceAlpha" type="matrix" values="0 0 0 0 0 0 0 0 0 0 0 0 0 0 0 0 0 0 127 0" result="hardAlpha"/>
<feOffset dy="4"/>
<feGaussianBlur stdDeviation="2"/>
<feComposite in2="hardAlpha" operator="out"/>
<feColorMatrix type="matrix" values="0 0 0 0 0 0 0 0 0 0 0 0 0 0 0 0 0 0 0.25 0"/>
<feBlend mode="normal" in2="BackgroundImageFix" result="effect1_dropShadow_10_28"/>
<feBlend mode="normal" in="SourceGraphic" in2="effect1_dropShadow_10_28" result="shape"/>
</filter>
<radialGradient id="paint0_radial_10_28" cx="0" cy="0" r="1" gradientUnits="userSpaceOnUse" gradientTransform="translate(50 50) rotate(90) scale(50)">
<stop stop-color="#0095FF"/>
<stop offset="1" stop-color="#0086E5"/>
</radialGradient>
</defs>
</svg>
